Coordinates
version=1
nRows=22
nColumns=24
inDegrees=yes

Units are S.I. units (second, meters, Newtons, ...)
Angles are in degrees.

endheader
time	pelvis_tilt	pelvis_list	pelvis_rotation	pelvis_tx	pelvis_ty	pelvis_tz	hip_flexion_r	hip_adduction_r	hip_rotation_r	knee_angle_r	ankle_angle_r	subtalar_angle_r	mtp_angle_r	hip_flexion_l	hip_adduction_l	hip_rotation_l	knee_angle_l	ankle_angle_l	subtalar_angle_l	mtp_angle_l	lumbar_extension	lumbar_bending	lumbar_rotation
      6.12000000	      0.66067415	     -8.20874445	      0.00774259	      0.01656203	      0.70376653	      0.27378975	      3.08297701	     14.30163385	     16.12155778	     -6.88351784	      9.80064361	    -15.69732754	      0.00000000	     28.11336048	     -3.35519768	      3.16177764	    -77.71721375	     -1.68299984	    -16.94707205	      0.00000000	    -17.28337117	     10.85197117	      0.92549664
      6.13000000	      0.61450286	     -7.80281376	     -0.43137992	      0.02959198	      0.70462416	      0.27477968	      1.28381964	     13.79089525	     17.40581821	     -5.81039477	     10.13419436	    -16.06883969	      0.00000000	     29.92446079	     -2.98464368	      3.15826281	    -76.98457176	     -0.44783018	    -15.61691124	      0.00000000	    -17.31758300	     10.18445861	      1.44136767
      6.14000000	      0.58116677	     -7.38145004	     -0.85356401	      0.04262155	      0.70523216	      0.27575054	     -0.51171540	     13.22320034	     18.67684729	     -4.71210991	     10.22313537	    -16.72539420	      0.00000000	     31.54030949	     -2.59714784	      3.22704741	    -75.79862498	      0.61453940	    -14.61014417	      0.00000000	    -17.38523684	      9.48448007	      1.92720655
      6.15000000	      0.60699127	     -7.01932222	     -1.29161516	      0.05544189	      0.70552001	      0.27666776	     -2.30256756	     12.67360261	     20.15103303	     -3.68444013	     10.31812934	    -17.58342498	      0.00000000	     32.96525382	     -2.29460543	      3.33400015	    -74.23711896	      1.43704456	    -14.04297159	      0.00000000	    -17.62553975	      8.87121496	      2.39235325
      6.16000000	      0.50891011	     -6.69215288	     -1.69304767	      0.06819739	      0.70540433	      0.27753108	     -3.80005064	     12.18137889	     21.08287391	     -2.88319804	     10.66578171	    -17.97450508	      0.00000000	     34.33396795	     -2.00939292	      3.55064490	    -72.21125022	      2.09679515	    -13.98772753	      0.00000000	    -17.73179087	      8.29351930	      2.81479253
      6.17000000	      0.27453339	     -6.47967428	     -1.99034461	      0.08077689	      0.70482367	      0.27824048	     -4.97151692	     11.85239133	     21.64024297	     -2.36286464	     11.26317230	    -17.97560202	      0.00000000	     35.69361956	     -1.76228350	      4.03701164	    -69.78274198	      2.69467039	    -14.12935338	      0.00000000	    -17.72583050	      7.88971154	      3.07230093
      6.18000000	      0.07708931	     -6.24979957	     -2.46484363	      0.09326604	      0.70417686	      0.27919786	     -6.09354884	     11.51654254	     22.26354553	     -2.00226078	     11.88939761	    -17.99434962	      0.00000000	     36.71913245	     -1.66507332	      4.36295085	    -66.80785535	      3.10518403	    -14.65593019	      0.00000000	    -17.82020925	      7.40627426	      3.57006768
      6.19000000	     -0.16878103	     -6.07967984	     -2.84870426	      0.10566457	      0.70331924	      0.28004728	     -7.04196734	     11.27768489	     22.71747270	     -1.84657088	     12.54926117	    -17.88429443	      0.00000000	     37.54284030	     -1.57781966	      4.90590519	    -63.32929973	      3.36558081	    -15.39594481	      0.00000000	    -17.88144587	      6.99499327	      3.97595934
      6.20000000	     -0.42923157	     -5.94503568	     -3.23104556	      0.11801973	      0.70236243	      0.28088871	     -7.86292943	     11.11057242	     22.97515050	     -1.89762860	     13.30771841	    -17.56190833	      0.00000000	     38.06659339	     -1.56699600	      5.51346883	    -59.28738305	      3.43774662	    -16.40535059	      0.00000000	    -17.92241476	      6.63887474	      4.36862396
      6.21000000	     -0.61766944	     -5.86320315	     -3.57566139	      0.13029847	      0.70145041	      0.28161908	     -8.63538997	     11.02795477	     22.84946705	     -2.18043742	     14.25566100	    -16.67937403	      0.00000000	     38.16582326	     -1.59994565	      6.27710703	    -54.66256425	      3.30641655	    -17.64142079	      0.00000000	    -18.09288673	      6.35103058	      4.80240753
      6.22000000	     -0.89536477	     -5.80046244	     -3.91610574	      0.14271220	      0.70033110	      0.28239662	     -9.23329970	     11.00441589	     22.49417763	     -2.63614327	     15.31570714	    -15.59048839	      0.00000000	     37.97944725	     -1.72301743	      7.09100173	    -49.46215424	      3.18827841	    -18.87221998	      0.00000000	    -18.11746197	      6.08163202	      5.16488415
      6.23000000	     -1.00445815	     -5.75138423	     -4.21399840	      0.15543089	      0.69935861	      0.28312438	     -9.94494824	     11.00308363	     21.57250614	     -3.26476798	     16.62085579	    -13.76961815	      0.00000000	     37.17012634	     -1.89954159	      7.98648359	    -43.66661688	      3.09904154	    -19.98145624	      0.00000000	    -18.25393865	      5.81591140	      5.39231545
      6.24000000	     -1.20082200	     -5.83595848	     -4.67652234	      0.16833944	      0.69816543	      0.28395699	    -10.58074077	     11.08921621	     21.20284047	     -3.95572449	     17.52373185	    -12.47951284	      0.00000000	     36.04493266	     -2.33475141	      8.93338452	    -37.39670043	      2.73067466	    -21.33397060	      0.00000000	    -18.26267048	      5.70626086	      5.87619698
      6.25000000	     -1.14107344	     -5.91858164	     -5.15690927	      0.18188684	      0.69710909	      0.28478521	    -11.54376843	     11.09872740	     20.68460700	     -4.65889975	     18.48943536	    -10.85956080	      0.00000000	     34.19857275	     -2.83674228	      9.91281236	    -30.71076132	      2.32240368	    -22.57400408	      0.00000000	    -18.42039396	      5.56735382	      6.30566148
      6.26000000	     -1.03505613	     -6.11080454	     -5.77818847	      0.19603987	      0.69589687	      0.28576957	    -12.60883483	     11.14511683	     20.40670166	     -5.42341203	     19.29344868	     -9.28760572	      0.00000000	     31.97334871	     -3.56998280	     10.89219476	    -23.90186757	      1.74633912	    -23.72904450	      0.00000000	    -18.49136766	      5.51995094	      6.86573487
      6.27000000	     -0.80813801	     -6.50747013	     -6.47753332	      0.21068338	      0.69454445	      0.28683628	    -13.81280152	     11.33577299	     20.22683824	     -6.33558314	     19.96198714	     -7.66368376	      0.00000000	     29.47131923	     -4.56471350	     11.82049929	    -17.34509125	      1.10887635	    -24.69695775	      0.00000000	    -18.62319789	      5.70328149	      7.54849306
      6.28000000	     -0.66231215	     -7.01201153	     -7.26307616	      0.22582143	      0.69292648	      0.28808789	    -14.88643584	     11.60716943	     20.09594960	     -7.47176758	     20.46918912	     -6.00869673	      0.00000000	     27.04681120	     -5.71493490	     12.41072731	    -11.39941628	      0.55663626	    -25.06119481	      0.00000000	    -18.56535281	      5.98314867	      8.28158254
      6.29000000	     -0.60648715	     -7.57367596	     -8.02946636	      0.24136982	      0.69114983	      0.28918477	    -15.74911514	     11.91538988	     19.76327311	     -8.89807404	     20.78954117	     -4.14751376	      0.00000000	     24.86884282	     -6.80769189	     12.50102610	     -6.42388481	      0.25384520	    -24.78224221	      0.00000000	    -18.30803469	      6.42716059	      9.01146289
      6.30000000	     -0.51303204	     -7.99910826	     -8.69880021	      0.25706771	      0.68950929	      0.29001091	    -16.30100952	     12.08639507	     18.74620646	    -10.90585175	     21.22645441	     -1.61983848	      0.00000000	     22.88826821	     -7.54739473	     12.44121331	     -2.59067856	      0.03840314	    -24.21508839	      0.00000000	    -18.09156008	      6.75735758	      9.46186876
      6.31000000	     -0.48887709	     -8.15916383	     -9.25962009	      0.27282271	      0.68803243	      0.29051590	    -16.32300335	     12.00142455	     17.04583745	    -13.56967258	     21.56036907	      1.33889523	      0.00000000	     21.32728597	     -7.79222729	     12.43887146	     -0.03715577	     -0.25588901	    -23.74698818	      0.00000000	    -17.75599052	      6.85569950	      9.64801520
      6.32000000	     -0.46232350	     -7.99658424	     -9.73576938	      0.28850062	      0.68687670	      0.29073203	    -15.83060627	     11.57183317	     14.91699010	    -16.92028262	     21.51681912	      4.29974945	      0.00000000	     20.15685616	     -7.50995726	     12.64885211	      1.24338997	     -0.75405228	    -23.77669949	      0.00000000	    -17.40303811	      6.64163040	      9.61794853
      6.33000000	     -0.34512472	     -7.35293537	    -10.03801382	      0.30407792	      0.68616612	      0.29059954	    -14.87856682	     10.61587711	     12.46365159	    -20.90812929	     20.91811659	      6.98968681	      0.00000000	     19.36150926	     -6.50984955	     12.99725445	      1.29571600	     -1.67601245	    -24.29447652	      0.00000000	    -17.10181309	      5.89236784	      9.29336860
